#define im_width 128
#define im_height 32
static char im_bits[] = {
0x00,0x00,0x00,0x01,0xf0,0x00,0x00,0x00,
0x00,0x00,0x00,0x00,0x03,0x00,0x00,0x00,
0x00,0x00,0x00,0x02,0x08,0x00,0x00,0x00,
0x00,0x00,0x00,0x00,0x03,0x00,0x00,0x00,
0x00,0x00,0x00,0x04,0x04,0x00,0x00,0x00,
0x00,0x00,0x00,0x00,0x00,0x00,0x00,0x00,
0x00,0x00,0x03,0xc4,0x04,0x00,0x18,0x00,
0x00,0x00,0x70,0x07,0x00,0x00,0x00,0x00,
0x00,0x00,0x0c,0x24,0x02,0x00,0x7e,0x0c,
0x18,0xb9,0x8c,0x38,0xc3,0x00,0x00,0x00,
0x00,0x00,0x10,0x14,0x01,0x00,0xc3,0x0c,
0x18,0xc3,0x06,0x30,0x63,0x00,0x00,0x00,
0x00,0x00,0x10,0x0b,0xc0,0x80,0x81,0x8c,
0x18,0xc2,0x02,0x30,0x23,0x00,0x00,0x00,
0x00,0x00,0x20,0x04,0x00,0x81,0x81,0x8c,
0x18,0x82,0x02,0x20,0x23,0x00,0x00,0x00,
0x00,0x00,0x41,0x8a,0x7c,0x81,0xff,0x0c,
0x18,0x82,0x02,0x20,0x23,0x00,0x00,0x00,
0x00,0x00,0x46,0x4a,0x43,0xc1,0x80,0x0c,
0x18,0x82,0x02,0x20,0x23,0x00,0x00,0x00,
0x00,0x00,0x48,0x89,0x38,0x00,0x80,0x0c,
0x18,0x83,0x06,0x30,0x63,0x00,0x00,0x00,
0x00,0x00,0x53,0x08,0x87,0x00,0xc3,0x06,
0x30,0x81,0x8c,0x38,0xc3,0x00,0x00,0x00,
0x00,0x00,0x64,0x08,0x00,0xc0,0x3c,0x01,
0xc0,0x80,0x70,0x37,0x03,0x00,0x00,0x00,
0x00,0x00,0x58,0x08,0x70,0x20,0x00,0x00,
0x00,0x00,0x00,0x30,0x00,0x00,0x00,0x00,
0x00,0x00,0x23,0x88,0x48,0x20,0x00,0x00,
0x00,0x00,0x00,0x30,0x00,0x00,0x00,0x00,
0x00,0x00,0x4c,0xb8,0x26,0x20,0x00,0x00,
0x00,0x00,0x00,0x30,0x00,0x00,0x00,0x00,
0x00,0x00,0x91,0x50,0x11,0x20,0x00,0x00,
0x00,0x00,0x00,0x30,0x00,0x00,0x00,0x00,
0x00,0x00,0xa6,0x91,0x08,0xa0,0x00,0x00,
0x00,0x00,0x00,0x00,0x00,0x00,0x00,0x00,
0x00,0x00,0xc9,0x12,0x84,0x60,0x00,0x00,
0x00,0x00,0x00,0x00,0x00,0x00,0x00,0x00,
0x00,0x00,0x12,0x12,0x43,0x00,0x00,0x00,
0x00,0x00,0x00,0x00,0x00,0x00,0x00,0x00,
0x00,0x00,0x24,0x11,0x20,0x80,0x00,0x00,
0x00,0x00,0x00,0x00,0x00,0x00,0x00,0x00,
0x00,0x00,0x48,0x0c,0x90,0x80,0x00,0x00,
0x00,0x00,0x00,0x00,0x00,0x00,0x00,0x00,
0x00,0x00,0x40,0x12,0x88,0x80,0x00,0x00,
0x00,0x00,0x00,0x00,0x00,0x00,0x00,0x00,
0x00,0x00,0x20,0x12,0x46,0x80,0x00,0x00,
0x00,0x00,0x00,0x00,0x00,0x00,0x00,0x00,
0x00,0x00,0x10,0x10,0x41,0x00,0x00,0x00,
0x00,0x00,0x00,0x00,0x00,0x00,0x00,0x00,
0x00,0x00,0x10,0x20,0x20,0x00,0x00,0x00,
0x00,0x00,0x00,0x00,0x00,0x00,0x00,0x00,
0x00,0x00,0x08,0x20,0x20,0x00,0x00,0x00,
0x00,0x00,0x00,0x00,0x00,0x00,0x00,0x00,
0x00,0x00,0x04,0x40,0x40,0x00,0x00,0x00,
0x00,0x00,0x00,0x00,0x00,0x00,0x00,0x00,
0x00,0x00,0x02,0x00,0x80,0x00,0x00,0x00,
0x00,0x00,0x00,0x00,0x00,0x00,0x00,0x00,
0x00,0x00,0x01,0x01,0x00,0x00,0x00,0x00,
0x00,0x00,0x00,0x00,0x00,0x00,0x00,0x00,
0x00,0x00,0x00,0xc6,0x00,0x00,0x00,0x00,
0x00,0x00,0x00,0x00,0x00,0x00,0x00,0x00,
0x00,0x00,0x00,0x38,0x00,0x00,0x00,0x00,
0x00,0x00,0x00,0x00,0x00,0x00,0x00,0x00,
};