#define im_width 128
#define im_height 32
static char im_bits[] = {
0x00,0x00,0x00,0x80,0x0f,0x00,0x00,0x00,
0x00,0x00,0x00,0x00,0xc0,0x00,0x00,0x00,
0x00,0x00,0x00,0x40,0x10,0x00,0x00,0x00,
0x00,0x00,0x00,0x00,0xc0,0x00,0x00,0x00,
0x00,0x00,0x00,0x20,0x20,0x00,0x00,0x00,
0x00,0x00,0x00,0x00,0x00,0x00,0x00,0x00,
0x00,0x00,0xc0,0x23,0x20,0x00,0x18,0x00,
0x00,0x00,0x0e,0xe0,0x00,0x00,0x00,0x00,
0x00,0x00,0x30,0x24,0x40,0x00,0x7e,0x30,
0x18,0x9d,0x31,0x1c,0xc3,0x00,0x00,0x00,
0x00,0x00,0x08,0x28,0x80,0x00,0xc3,0x30,
0x18,0xc3,0x60,0x0c,0xc6,0x00,0x00,0x00,
0x00,0x00,0x08,0xd0,0x03,0x01,0x81,0x31,
0x18,0x43,0x40,0x0c,0xc4,0x00,0x00,0x00,
0x00,0x00,0x04,0x20,0x00,0x81,0x81,0x31,
0x18,0x41,0x40,0x04,0xc4,0x00,0x00,0x00,
0x00,0x00,0x82,0x51,0x3e,0x81,0xff,0x30,
0x18,0x41,0x40,0x04,0xc4,0x00,0x00,0x00,
0x00,0x00,0x62,0x52,0xc2,0x83,0x01,0x30,
0x18,0x41,0x40,0x04,0xc4,0x00,0x00,0x00,
0x00,0x00,0x12,0x91,0x1c,0x00,0x01,0x30,
0x18,0xc1,0x60,0x0c,0xc6,0x00,0x00,0x00,
0x00,0x00,0xca,0x10,0xe1,0x00,0xc3,0x60,
0x0c,0x81,0x31,0x1c,0xc3,0x00,0x00,0x00,
0x00,0x00,0x26,0x10,0x00,0x03,0x3c,0x80,
0x03,0x01,0x0e,0xec,0xc0,0x00,0x00,0x00,
0x00,0x00,0x1a,0x10,0x0e,0x04,0x00,0x00,
0x00,0x00,0x00,0x0c,0x00,0x00,0x00,0x00,
0x00,0x00,0xc4,0x11,0x12,0x04,0x00,0x00,
0x00,0x00,0x00,0x0c,0x00,0x00,0x00,0x00,
0x00,0x00,0x32,0x1d,0x64,0x04,0x00,0x00,
0x00,0x00,0x00,0x0c,0x00,0x00,0x00,0x00,
0x00,0x00,0x89,0x0a,0x88,0x04,0x00,0x00,
0x00,0x00,0x00,0x0c,0x00,0x00,0x00,0x00,
0x00,0x00,0x65,0x89,0x10,0x05,0x00,0x00,
0x00,0x00,0x00,0x00,0x00,0x00,0x00,0x00,
0x00,0x00,0x93,0x48,0x21,0x06,0x00,0x00,
0x00,0x00,0x00,0x00,0x00,0x00,0x00,0x00,
0x00,0x00,0x48,0x48,0xc2,0x00,0x00,0x00,
0x00,0x00,0x00,0x00,0x00,0x00,0x00,0x00,
0x00,0x00,0x24,0x88,0x04,0x01,0x00,0x00,
0x00,0x00,0x00,0x00,0x00,0x00,0x00,0x00,
0x00,0x00,0x12,0x30,0x09,0x01,0x00,0x00,
0x00,0x00,0x00,0x00,0x00,0x00,0x00,0x00,
0x00,0x00,0x02,0x48,0x11,0x01,0x00,0x00,
0x00,0x00,0x00,0x00,0x00,0x00,0x00,0x00,
0x00,0x00,0x04,0x48,0x62,0x01,0x00,0x00,
0x00,0x00,0x00,0x00,0x00,0x00,0x00,0x00,
0x00,0x00,0x08,0x08,0x82,0x00,0x00,0x00,
0x00,0x00,0x00,0x00,0x00,0x00,0x00,0x00,
0x00,0x00,0x08,0x04,0x04,0x00,0x00,0x00,
0x00,0x00,0x00,0x00,0x00,0x00,0x00,0x00,
0x00,0x00,0x10,0x04,0x04,0x00,0x00,0x00,
0x00,0x00,0x00,0x00,0x00,0x00,0x00,0x00,
0x00,0x00,0x20,0x02,0x02,0x00,0x00,0x00,
0x00,0x00,0x00,0x00,0x00,0x00,0x00,0x00,
0x00,0x00,0x40,0x00,0x01,0x00,0x00,0x00,
0x00,0x00,0x00,0x00,0x00,0x00,0x00,0x00,
0x00,0x00,0x80,0x80,0x00,0x00,0x00,0x00,
0x00,0x00,0x00,0x00,0x00,0x00,0x00,0x00,
0x00,0x00,0x00,0x63,0x00,0x00,0x00,0x00,
0x00,0x00,0x00,0x00,0x00,0x00,0x00,0x00,
0x00,0x00,0x00,0x1c,0x00,0x00,0x00,0x00,
0x00,0x00,0x00,0x00,0x00,0x00,0x00,0x00,
};