#define im_width 72
#define im_height 58
static char im_bits[] = {
0x00,0x00,0x00,0x00,0x00,0x00,0x00,0x00,0x00,0x00,0x00,0x00,0x00,0x00,0x00,
0x00,0x00,0x00,0x10,0x11,0x11,0x91,0x48,0x44,0x44,0x44,0x12,0x04,0x00,0x00,
0x00,0x00,0x00,0x00,0x00,0x00,0x00,0x44,0x44,0x04,0x02,0x11,0x11,0x11,0x40,
0x40,0x00,0x00,0x40,0x20,0x00,0x00,0x00,0x11,0x08,0x10,0x00,0x10,0x08,0x00,
0x00,0x40,0x00,0x00,0x01,0x49,0x02,0x00,0x92,0x24,0x09,0x00,0x20,0x40,0x00,
0x00,0x81,0x00,0x00,0x00,0x24,0x04,0x04,0x00,0x20,0x10,0x00,0x00,0x80,0x00,
0x00,0x01,0x24,0x09,0x04,0x48,0x92,0x24,0x00,0x20,0x20,0x01,0x40,0x01,0x01,
0x00,0x00,0x48,0x04,0x00,0x00,0xc0,0x40,0x60,0x00,0x00,0x02,0x00,0x02,0x10,
0x51,0x00,0xc0,0x24,0x89,0x00,0x20,0x90,0x04,0xc0,0x08,0x64,0x00,0x00,0x40,
0x48,0x8c,0x1b,0x7e,0xf4,0xd8,0x87,0x27,0x08,0x60,0x8c,0x37,0xf7,0xdc,0xf1,
0xe2,0x1d,0x02,0x64,0x98,0x30,0xa1,0x80,0x41,0xa0,0x18,0x00,0x60,0x8a,0x31,
0x63,0x70,0x63,0xe0,0x0e,0x20,0x60,0x8c,0x61,0xc3,0xdc,0xc1,0x64,0x5b,0x02,
0x48,0x98,0x31,0x63,0x8c,0x69,0x60,0x00,0x00,0x60,0x8c,0x31,0xe3,0x8c,0xc1,
0x60,0x00,0x48,0xc0,0x8f,0x37,0x6e,0xac,0xc3,0xc5,0x9b,0x00,0xc4,0xad,0x1d,
0xde,0x78,0x41,0x87,0x0f,0x00,0x00,0x80,0x01,0x00,0x00,0x08,0x00,0x20,0x12,
0x10,0x80,0x81,0x00,0x00,0x02,0x20,0xc0,0xef,0x04,0x81,0x21,0x20,0x89,0x80,
0x00,0xe4,0x7a,0x00,0x08,0x08,0x08,0x00,0x20,0x04,0x01,0x00,0x40,0x40,0x00,
0x02,0x20,0x00,0x20,0x00,0x00,0x08,0x10,0x02,0x00,0x01,0x02,0x00,0x00,0x02,
0x00,0x01,0x20,0x40,0x08,0x90,0x04,0x92,0x10,0x40,0x00,0x00,0x11,0x80,0x00,
0x40,0x00,0x00,0x04,0x24,0x09,0x00,0x20,0x00,0x10,0x00,0x40,0x00,0x00,0x00,
0x04,0x09,0x24,0x01,0x92,0x04,0x90,0x00,0x20,0x41,0x00,0x00,0x00,0x00,0x00,
0x04,0x48,0x02,0x00,0x00,0x01,0x24,0x00,0x10,0x00,0x02,0x00,0x10,0x48,0x90,
0x00,0x49,0x02,0x40,0x00,0x48,0x04,0x01,0x00,0x00,0x00,0x40,0x08,0x20,0x02,
0x00,0x00,0x04,0x24,0x00,0x10,0x80,0x8f,0x1f,0x7b,0x8e,0xf3,0x83,0x4f,0x04,
0xc0,0x8d,0x2a,0x6e,0x04,0xb1,0xc5,0x0d,0x00,0x64,0x20,0x30,0x67,0xac,0x01,
0xc6,0x00,0x01,0xa0,0x00,0x3d,0xc2,0x98,0xe1,0xc6,0x40,0x10,0x60,0x80,0x17,
0x43,0x98,0xd8,0x83,0x0f,0x00,0x64,0x49,0x31,0xc6,0xe8,0x30,0x26,0x0e,0x46,
0xc0,0x80,0x31,0x63,0x52,0x1c,0x06,0x88,0x0e,0xc0,0x9a,0x2d,0xc5,0xf0,0xb0,
0xc3,0x0e,0x0b,0x88,0x0f,0x3b,0x43,0x50,0xe0,0xe6,0x25,0x0e,0x00,0x00,0x00,
0x00,0x00,0x00,0x00,0x00,0x00,0x00,0x40,0x04,0x90,0x04,0x02,0x00,0x00,0x40,
0x24,0x10,0x80,0x00,0x40,0x10,0x09,0x49,0x02,0x00,0x01,0x20,0x04,0x10,0x00,
0x40,0x00,0x20,0x00,0x00,0x09,0x40,0x02,0x44,0x00,0x00,0x08,0x24,0x24,0x00,
0x10,0x00,0x01,0x04,0x24,0x01,0x00,0x01,0x00,0x01,0x20,0x00,0x21,0x01,0x00,
0x00,0x00,0x11,0x00,0x09,0x10,0x00,0x00,0x20,0x24,0x10,0x00,0x44,0x00,0x02,
0x00,0x20,0x02,0x00,0x02,0x44,0x00,0x80,0x40,0x12,0x09,0x00
};
